<?xml version="1.0" standalone="no"?>
<!DOCTYPE svg PUBLIC "-//W3C//DTD SVG 20010904//EN"
 "http://www.w3.org/TR/2001/REC-SVG-20010904/DTD/svg10.dtd">
<svg version="1.0" xmlns="http://www.w3.org/2000/svg"
 width="1280.000000pt" height="514.000000pt" viewBox="0 0 1280.000000 514.000000"
 preserveAspectRatio="xMidYMid meet">

<g transform="translate(0.000000,514.000000) scale(0.100000,-0.100000)"
fill="#fff" stroke="none">
<path d="M7 5133 c-4 -3 -7 -1160 -7 -2570 l0 -2564 1113 4 c1206 4 1259 6
1546 62 397 78 754 266 991 522 249 270 435 624 541 1033 66 256 90 460 96
836 12 728 -94 1245 -348 1694 -106 186 -209 320 -358 465 -177 171 -330 271
-550 360 -240 96 -445 130 -931 155 -216 11 -2083 14 -2093 3z m2188 -886
c532 -66 826 -336 965 -887 96 -384 94 -1198 -5 -1625 -45 -197 -144 -424
-231 -529 -132 -160 -334 -266 -594 -312 -80 -15 -188 -18 -692 -21 l-598 -5
0 1703 0 1702 518 -6 c361 -4 553 -10 637 -20z"/>
<path d="M5180 2568 l0 -2568 485 0 485 0 0 2568 0 2567 -485 0 -485 0 0
-2567z"/>
<path d="M6660 5127 c0 -15 47 -149 210 -602 61 -170 147 -411 191 -535 45
-124 102 -286 129 -360 27 -74 69 -193 95 -265 25 -71 66 -184 90 -250 42
-115 84 -233 200 -560 51 -145 177 -498 331 -930 42 -115 84 -232 94 -260 10
-27 82 -228 160 -445 77 -217 172 -483 210 -590 39 -107 81 -224 93 -260 l23
-65 556 -3 556 -2 26 67 c32 87 158 440 201 563 18 52 80 228 138 390 58 162
142 399 187 525 45 127 94 266 110 310 16 44 100 278 186 520 86 242 190 535
231 650 41 116 92 260 113 320 21 61 95 270 165 465 70 195 163 456 207 580
120 338 182 514 222 625 20 55 36 106 36 113 0 9 -115 12 -544 12 l-544 0 -90
-272 c-49 -150 -185 -563 -302 -918 -116 -355 -227 -690 -245 -745 -19 -55
-131 -397 -251 -760 -119 -363 -249 -757 -288 -876 -39 -119 -75 -216 -81
-217 -5 0 -43 95 -83 211 -193 564 -240 700 -317 927 -46 135 -125 364 -175
510 -119 344 -199 579 -210 610 -4 14 -58 171 -120 350 -61 179 -142 415 -180
525 -37 110 -103 302 -146 428 l-78 227 -553 0 c-450 0 -553 -2 -553 -13z"/>
<path d="M11820 2570 l0 -2570 490 0 490 0 0 2570 0 2570 -490 0 -490 0 0
-2570z"/>
</g>
</svg>
