<svg xmlns="http://www.w3.org/2000/svg" width="32" height="32" viewBox="0 0 32 32"
     class="header-profile__icon header-profile__icon--desktop">
    <path fill="#fff" stroke="#fff"
          d="M13.717 3.437a6.188 6.188 0 013.446-.327 6.065 6.065 0 013.065 1.577 5.75 5.75 0 011.655 2.978 5.63 5.63 0 01-.345 3.375 5.85 5.85 0 01-2.22 2.603A6.145 6.145 0 0116 14.61h-.001a6.11 6.11 0 01-4.226-1.688A5.718 5.718 0 0110 8.807v-.002c0-1.157.357-2.285 1.022-3.24a5.962 5.962 0 012.695-2.128zm6.208 4.634a3.75 3.75 0 00-1.082-1.943 4.065 4.065 0 00-2.055-1.053 4.2 4.2 0 00-2.332.22 3.963 3.963 0 00-1.792 1.412A3.673 3.673 0 0012 8.805c.001.996.413 1.96 1.16 2.676.413.398.912.702 1.457.894.438.154.905.235 1.383.236.8 0 1.579-.228 2.238-.651.178-.115.345-.242.5-.38.417-.373.746-.827.963-1.331a3.622 3.622 0 00.224-2.178zm3.384 11.149a14.206 14.206 0 00-14.618 0A7.603 7.603 0 005 25.74V27c0 1 1 2 2 2h18c1 0 2-1 2-2v-1.26a7.603 7.603 0 00-3.691-6.52zM9.72 20.935a12.206 12.206 0 0112.56 0A5.603 5.603 0 0125 25.739v1.262H7v-1.262a5.603 5.603 0 012.72-4.804z"></path>
</svg>